<svg width="82" height="100" viewBox="0 0 82 100" fill="none" xmlns="http://www.w3.org/2000/svg">
<path d="M76.985 -6.48368e-05C79.7523 -0.00838147 82 2.23262 82 4.99991L82 50.5114V94.9849C82 97.7463 79.7614 99.9849 77 99.9849H69.1282C66.3668 99.9849 64.1282 97.7463 64.1282 94.9849V50.0595L64.1282 5.02357C64.1282 2.26801 66.3576 0.031874 69.1132 0.0235927L76.985 -6.48368e-05ZM12.5865 99.962C15.3224 99.9449 17.5364 97.7322 17.5552 94.9964L17.8635 50.0117L17.5555 4.98179C17.5367 2.22158 15.2846 -0.00115707 12.5244 0.0160943L8.92764 0.0385742L5.03008 0.0151255C2.25695 -0.00155831 0 2.24186 0 5.01504L0 94.9612C0 97.7108 2.22029 99.9445 4.96994 99.9611L8.92764 99.9849L12.5865 99.962Z" fill="white"/>
</svg>
